<svg xmlns="http://www.w3.org/2000/svg" width="100.063" height="91.917" viewBox="0 0 100.063 91.917">
  <g id="Group_1401" data-name="Group 1401" transform="translate(-4705 -1425.363)">
    <path id="Path_4339" data-name="Path 4339" d="M109.173,181.337Z" transform="translate(4684.388 1275.393)" fill="#ff3501"/>
    <path id="Path_4340" data-name="Path 4340" d="M62.226,181.336h76.2S62.054,181.936,62.226,181.336Z" transform="translate(4655.133 1275.393)" fill="#ff5023"/>
    <g id="Group_1400" data-name="Group 1400" transform="translate(4728.619 1433.325)">
      <path id="Path_3798" data-name="Path 3798" d="M368.966,67.144a2.22,2.22,0,1,1-3.227,3.049c-.842-.891-2.392-3.978-1.5-4.82S368.124,66.253,368.966,67.144Z" transform="translate(-316.458 -64.45)" fill="#fff5cc"/>
      <path id="Path_3799" data-name="Path 3799" d="M310.734,117.148a2.219,2.219,0,0,1-4.144,1.591c-.439-1.144-.7-4.589.447-5.028S310.294,116,310.734,117.148Z" transform="translate(-269.99 -103.485)" fill="#fff5cc"/>
      <path id="Path_3800" data-name="Path 3800" d="M249.082,66.116a2.22,2.22,0,0,1-4.439,0c0-1.226.994-4.534,2.22-4.534S249.082,64.89,249.082,66.116Z" transform="translate(-220.45 -61.582)" fill="#fff5cc"/>
      <path id="Path_3801" data-name="Path 3801" d="M186.925,118.161a2.22,2.22,0,1,1-4.3-1.11c.307-1.187,2.1-4.141,3.283-3.834S187.232,116.974,186.925,118.161Z" transform="translate(-170.497 -103.108)" fill="#fff5cc"/>
      <path id="Path_3802" data-name="Path 3802" d="M125.07,68.057a2.219,2.219,0,0,1-3.995-1.935c.534-1.1,2.871-3.647,3.974-3.112S125.6,66.954,125.07,68.057Z" transform="translate(-120.852 -62.671)" fill="#fff5cc"/>
    </g>
    <path id="Path_4345" data-name="Path 4345" d="M146.065,381.281a1.483,1.483,0,0,0-1.8,1.068c-2.783,10.9-14.637,17.409-31.708,17.409H83.142c-8.478,0-15.912-1.658-21.5-4.8a1.48,1.48,0,1,0-1.449,2.582c6.031,3.385,13.968,5.176,22.952,5.176h29.415c14.9,0,30.891-5.205,34.578-19.637A1.482,1.482,0,0,0,146.065,381.281Z" transform="translate(4657.181 1114.562)"/>
    <path id="Path_4346" data-name="Path 4346" d="M285.514,294.9h0Z" transform="translate(4475.285 1184.025)"/>
    <path id="Path_4347" data-name="Path 4347" d="M93.455,79.548A7.773,7.773,0,0,0,94.6,75.737c4.347-2.511,4.922-9.907.922-13.3a7.755,7.755,0,0,0-.357-8.247,6.74,6.74,0,0,0,4.9-6.475c0-16.957-19.374-23.561-36.264-25.854a1.48,1.48,0,1,0-.4,2.933c14.958,2.031,33.7,7.76,33.7,22.92a3.77,3.77,0,0,1-3.764,3.764H6.726a3.77,3.77,0,0,1-3.764-3.764c0-9.718,7.553-16.682,22.448-20.7A104.914,104.914,0,0,1,50.088,23.8c.324,0,3.271.01,7.483.361a1.481,1.481,0,1,0,.247-2.951c-2.559-.213-5.266-.358-7.845-.371-12.909,0-31.99,2.965-42.111,11.151C2.645,36.209,0,41.5,0,47.716a6.741,6.741,0,0,0,4.868,6.465,7.773,7.773,0,0,0-.31,8.234A8.834,8.834,0,0,0,3,73.192a8.173,8.173,0,0,0,2.464,2.3,7.794,7.794,0,0,0,1.144,4.057A7.847,7.847,0,0,0,0,86.957a22.1,22.1,0,0,0,7.3,16.986,1.48,1.48,0,0,0,2-2.185,19.248,19.248,0,0,1-6.333-14.8c0-2.556,2.471-4.637,5.508-4.637h8.457L16.9,89.612A7.46,7.46,0,0,0,24.367,97.1h.156a7.637,7.637,0,0,0,7.643-7.614V84.571a.624.624,0,0,1,.624-.624,3.579,3.579,0,0,0,3-1.627h9.244c.877.647,3.433,4.669,8.988,4.669s8.116-4.024,8.99-4.669H91.594c3.006,0,5.478,2.059,5.508,4.592a1.478,1.478,0,0,0,1.478,1.463H98.6a1.481,1.481,0,0,0,1.465-1.5A7.879,7.879,0,0,0,93.455,79.548ZM52.025,54.441h39.2a4.8,4.8,0,0,1-2.537,8.909c-31.815,0-2.479-.082-46.435,0C45.222,61.772,46.145,60.12,52.025,54.441ZM5.533,71.661a5.906,5.906,0,0,1,.959-7,8.011,8.011,0,0,0,5,1.757h7.742A2.66,2.66,0,0,1,21.888,68.9a5.434,5.434,0,0,0-1.834-.32c-2.23,0-3.143.983-9.558,5.178A5.6,5.6,0,0,1,5.533,71.661Zm11.643,7.7H10.357a4.875,4.875,0,0,1-1.794-2.722c.79.124,2.583.233,3.255-.205l6.794-4.441a2.716,2.716,0,0,1,3.281.274v3.5a1,1,0,0,1-1,1A3.969,3.969,0,0,0,17.176,79.359Zm16.236-4.582v5.585a.623.623,0,0,1-.622.624,3.591,3.591,0,0,0-3.585,3.585v4.917a4.738,4.738,0,0,1-8.028,3.328,4.431,4.431,0,0,1-1.313-3.283c.007-2.149.014-4.636.027-8.812a1,1,0,0,1,1-1,3.967,3.967,0,0,0,3.962-3.962v-6.69a5.621,5.621,0,0,0-3.247-5.091c-1.867-.88-2.974-.385-10.113-.527a4.893,4.893,0,0,1-2.73-9.013H19.355l6.429,6.429a13.9,13.9,0,0,0,9.239,4.09C32.829,66.731,33.541,69.181,33.412,74.778Zm-5.533-16-4.337-4.337h24.3L43.5,58.778A11.041,11.041,0,0,1,27.879,58.778Zm8.494,20.581V76.238L37.81,75.1l4.262,4.262Zm22.4,2.961a7.456,7.456,0,0,1-10.03-.474l-8.6-8.6c.527-.262,2.2-2.521,4.359-.92l6.179,4.58a5.526,5.526,0,0,0,6.948-.176l5.417-4.406a2.552,2.552,0,0,1,3.162-.2l1.81,1.182C57.809,83.295,59.058,82.088,58.776,82.32Zm30.93-2.961H65.971l4.471-4.471,1.846,1.206a6.074,6.074,0,0,0,4.888,1.255,6.7,6.7,0,0,0,4.078-3.121c.992-1.576,2.688-2.2,4.185-1.1,2.438,1.61,3.623,3.243,6.094,3.366A4.868,4.868,0,0,1,89.706,79.359Zm.509-6.38c-3.15-2.326-3.026-2.24-3.2-2.363-2.721-1.858-6.276-1.11-8.265,2.035a3.778,3.778,0,0,1-2.2,1.8c-1.3.287-1.448-.059-8.719-4.815a5.486,5.486,0,0,0-6.648.383l-5.33,4.336-.032.026-.007.006L55.8,74.4l0,0,0,0-.007.006-.03.025a2.578,2.578,0,0,1-3.318.095c-6.171-4.574-7.1-5.7-9.5-5.721-2.033-.014-3.315.984-4.905,2.333l-1.664,1.321V69.072c0-3.919.841-2.657,52.315-2.657A7.787,7.787,0,0,0,93.6,64.69a5.831,5.831,0,0,1,1.3,6.165C94.1,73.081,92.05,74.332,90.216,72.979Z" transform="translate(4705 1404.525)"/>
    <path id="Path_4348" data-name="Path 4348" d="M357.122,58.193c-.879.83-.968,2.176-.264,4,.834,2.161,2.092,4.071,4.4,4.071a3.705,3.705,0,0,0,2.686-6.241h0C363.1,59.133,359.108,56.315,357.122,58.193Zm4.11,5.11a.736.736,0,0,1-.516-.231,7.544,7.544,0,0,1-1.255-2.4,7.545,7.545,0,0,1,2.329,1.389A.74.74,0,0,1,361.231,63.3Z" transform="translate(4418.262 1374.979)"/>
    <path id="Path_4349" data-name="Path 4349" d="M299.075,113.161a3.7,3.7,0,1,0,6.908-2.653h0c-.439-1.143-3.057-5.268-5.61-4.288S298.637,112.018,299.075,113.161Zm2.519-3.762a7.549,7.549,0,0,1,1.625,2.171h0a.739.739,0,0,1-1.38.53A7.547,7.547,0,0,1,301.594,109.4Z" transform="translate(4464.761 1335.949)"/>
    <path id="Path_4350" data-name="Path 4350" d="M237.067,60.02a3.7,3.7,0,0,0,7.4,0c0-1.224-.966-6.014-3.7-6.014S237.067,58.8,237.067,60.02Zm3.7.739a.74.74,0,0,1-.739-.739,7.542,7.542,0,0,1,.739-2.609,7.538,7.538,0,0,1,.739,2.609A.74.74,0,0,1,240.767,60.759Z" transform="translate(4514.264 1377.839)"/>
    <path id="Path_4351" data-name="Path 4351" d="M176.671,107.576c-1.347,1.8-2.311,3.851-1.164,5.8a3.705,3.705,0,0,0,6.77-.954c.306-1.185.569-6.064-2.078-6.748C179.028,105.37,177.841,106.01,176.671,107.576Zm2.739,4.1a.739.739,0,1,1-1.431-.37,7.539,7.539,0,0,1,1.368-2.341A7.542,7.542,0,0,1,179.41,111.68Z" transform="translate(4564.203 1336.329)"/>
    <path id="Path_4352" data-name="Path 4352" d="M113.636,59.409a3.7,3.7,0,0,0,6.66,3.226c.645-1.331,1.634-5.891-.708-7.025C117.294,54.5,114.323,57.991,113.636,59.409Zm4,1.935a.739.739,0,1,1-1.33-.645,7.543,7.543,0,0,1,1.8-2.026A7.552,7.552,0,0,1,117.631,61.344Z" transform="translate(4613.872 1376.721)"/>
  </g>
</svg>
